<?xml version="1.0" encoding="utf-8"?>
<!-- Generator: Adobe Illustrator 23.0.2, SVG Export Plug-In . SVG Version: 6.00 Build 0)  -->
<svg version="1.1" id="Layer_1" xmlns="http://www.w3.org/2000/svg" xmlns:xlink="http://www.w3.org/1999/xlink" x="0px" y="0px"
	 viewBox="0 0 305.36 153.19" style="enable-background:new 0 0 305.36 153.19;" xml:space="preserve">
<style type="text/css">
	.st0{fill:none;}
</style>
<path d="M282.5,56.35c-1.19-7.76-5.43-12.92-13.2-14.7c-3.43-0.78-6.95-1.49-10.44-1.57c-15.25-0.31-30.51-0.52-45.77-0.47
	c-5.43,0.02-10.89,0.66-16.28,1.43c-7.38,1.08-12.93,4.79-14.92,12.4c-0.81,3.09-1.41,6.29-1.52,9.47
	c-0.32,8.99-0.35,17.97-0.48,26.97c-0.04,2.38-0.01,4.77-0.01,7.15c-0.09,1.02-0.08,1.83-0.3,2.02c-0.96-0.7-2.54-2.64-3.19-3.55
	c-12.42-17.55-24.78-35.14-37.09-52.77c-0.94-1.34-2.47-2.13-4.1-2.12c-11.65,0.09-23.3,0.05-34.95,0.05h-2.91v27.11H44.98V40.77
	H21.24v75.32h23.89V88.98h52.33v27.13h24.12V59.95c0.21-0.12,0.41-0.24,0.62-0.35c0.63,0.69,1.34,1.31,1.87,2.07
	c12.48,17.61,24.93,35.23,37.35,52.88c0.88,1.25,1.74,1.8,3.31,1.79c15.73,0.17,31.46,0.34,47.19,0.51
	c17.97,0.19,35.88,0.51,53.82-0.74c8.48-0.59,15.37-6.95,16.75-15.33c0.7-4.27,0.97-8.62,1.17-12.95
	C284.12,77.3,284.09,66.79,282.5,56.35 M203.42,67.82c0.61-4.67,2.92-7.05,7.43-7.92c1.8-0.34,3.66-0.55,5.5-0.57
	c8.19-0.09,16.38-0.15,24.57-0.09c3.69,0.03,7.38,0.24,11.06,0.57c4.74,0.43,7.41,2.33,7.82,6.98c0.64,7.33,0.66,14.75,0.51,22.12
	c-0.08,4.03-3.06,7.4-7.04,8.08c-2.44,0.42-4.92,0.85-7.38,0.8c-9.67-0.16-20.92,0.25-34.58,0.44c-4.49,0.06-8.22-3.56-8.28-8.05
	c-0.06-4.47-0.12-8.94-0.1-13.47C202.95,73.74,203.05,70.76,203.42,67.82"/>
</svg>
